<svg width="50" height="16" viewBox="0 0 50 16" fill="none" xmlns="http://www.w3.org/2000/svg">
<path d="M4.904 12.904C5.256 12.872 5.56533 12.7973 5.832 12.68C6.09867 12.5573 6.32267 12.4027 6.504 12.216C6.69067 12.0293 6.82933 11.8133 6.92 11.568C7.016 11.3173 7.064 11.0427 7.064 10.744C7.064 10.4773 7.01333 10.248 6.912 10.056C6.816 9.864 6.68267 9.69867 6.512 9.56C6.34133 9.416 6.14133 9.296 5.912 9.2C5.68267 9.09867 5.43733 9.00533 5.176 8.92L4.904 12.904ZM4.64 3.656C4.29333 3.688 3.992 3.75733 3.736 3.864C3.48533 3.97067 3.27733 4.104 3.112 4.264C2.94667 4.424 2.824 4.60533 2.744 4.808C2.664 5.00533 2.624 5.21333 2.624 5.432C2.624 5.688 2.66933 5.912 2.76 6.104C2.85067 6.29067 2.976 6.456 3.136 6.6C3.296 6.744 3.48267 6.86933 3.696 6.976C3.90933 7.08267 4.14133 7.17867 4.392 7.264L4.64 3.656ZM5.272 7.544C5.656 7.66667 6.03467 7.79733 6.408 7.936C6.78133 8.07467 7.11733 8.25333 7.416 8.472C7.71467 8.69067 7.95467 8.96533 8.136 9.296C8.32267 9.62133 8.416 10.0293 8.416 10.52C8.416 11 8.336 11.4507 8.176 11.872C8.016 12.2933 7.78133 12.664 7.472 12.984C7.168 13.304 6.792 13.5653 6.344 13.768C5.90133 13.9653 5.39467 14.0827 4.824 14.12L4.728 15.52C4.72267 15.6213 4.68267 15.7093 4.608 15.784C4.53333 15.864 4.44 15.904 4.328 15.904H3.8L3.92 14.104C3.27467 14.04 2.68533 13.88 2.152 13.624C1.624 13.3627 1.168 13.032 0.784 12.632L1.216 11.976C1.25867 11.9173 1.312 11.8693 1.376 11.832C1.44 11.7947 1.50933 11.776 1.584 11.776C1.68533 11.776 1.8 11.8267 1.928 11.928C2.056 12.0293 2.21333 12.144 2.4 12.272C2.592 12.4 2.816 12.5253 3.072 12.648C3.33333 12.7707 3.64533 12.8533 4.008 12.896L4.296 8.648C3.92267 8.536 3.55467 8.41067 3.192 8.272C2.83467 8.13333 2.512 7.94933 2.224 7.72C1.94133 7.49067 1.712 7.20533 1.536 6.864C1.36533 6.52267 1.28 6.09333 1.28 5.576C1.28 5.18667 1.35467 4.808 1.504 4.44C1.65867 4.06667 1.88267 3.736 2.176 3.448C2.46933 3.16 2.82933 2.92533 3.256 2.744C3.68267 2.55733 4.17067 2.45333 4.72 2.432L4.8 1.28C4.80533 1.17867 4.84267 1.088 4.912 1.008C4.98667 0.927999 5.08267 0.888 5.2 0.888H5.728L5.624 2.464C6.17867 2.53333 6.65867 2.67733 7.064 2.896C7.47467 3.11467 7.83733 3.38133 8.152 3.696L7.808 4.224C7.70133 4.384 7.57867 4.464 7.44 4.464C7.36533 4.464 7.272 4.432 7.16 4.368C7.05333 4.29867 6.92267 4.21867 6.768 4.128C6.61867 4.03733 6.44 3.94933 6.232 3.864C6.02933 3.77867 5.79733 3.71467 5.536 3.672L5.272 7.544ZM12.1773 6.864C12.7746 6.736 13.3239 6.672 13.8253 6.672C14.4226 6.672 14.9506 6.76 15.4093 6.936C15.8679 7.112 16.2493 7.35467 16.5533 7.664C16.8626 7.97333 17.0946 8.33867 17.2493 8.76C17.4093 9.18133 17.4893 9.64 17.4893 10.136C17.4893 10.744 17.3826 11.2933 17.1693 11.784C16.9613 12.2747 16.6706 12.696 16.2973 13.048C15.9293 13.3947 15.4946 13.6613 14.9933 13.848C14.4919 14.0347 13.9506 14.128 13.3693 14.128C13.0333 14.128 12.7106 14.0933 12.4013 14.024C12.0919 13.96 11.8013 13.872 11.5293 13.76C11.2626 13.648 11.0146 13.52 10.7853 13.376C10.5559 13.232 10.3533 13.08 10.1773 12.92L10.6173 12.312C10.7133 12.1733 10.8386 12.104 10.9933 12.104C11.0999 12.104 11.2199 12.1467 11.3533 12.232C11.4866 12.312 11.6493 12.4027 11.8413 12.504C12.0333 12.6053 12.2573 12.6987 12.5133 12.784C12.7746 12.864 13.0839 12.904 13.4413 12.904C13.8413 12.904 14.2013 12.84 14.5213 12.712C14.8413 12.584 15.1159 12.4027 15.3453 12.168C15.5746 11.928 15.7506 11.6427 15.8733 11.312C15.9959 10.9813 16.0573 10.6107 16.0573 10.2C16.0573 9.84267 16.0039 9.52 15.8973 9.232C15.7959 8.944 15.6386 8.69867 15.4253 8.496C15.2173 8.29333 14.9559 8.136 14.6413 8.024C14.3266 7.912 13.9586 7.856 13.5373 7.856C13.2493 7.856 12.9479 7.88 12.6333 7.928C12.3239 7.976 12.0066 8.05333 11.6813 8.16L10.7853 7.896L11.7053 2.536H17.1373V3.16C17.1373 3.36267 17.0733 3.53067 16.9453 3.664C16.8226 3.792 16.6093 3.856 16.3053 3.856H12.7053L12.1773 6.864ZM26.4585 12.648C26.6132 12.648 26.7358 12.6933 26.8265 12.784C26.9172 12.8747 26.9625 12.992 26.9625 13.136V14H19.3145V13.512C19.3145 13.4107 19.3358 13.3067 19.3785 13.2C19.4212 13.0933 19.4878 12.9947 19.5785 12.904L23.2505 9.216C23.5545 8.90667 23.8318 8.61067 24.0825 8.328C24.3332 8.04 24.5465 7.752 24.7225 7.464C24.8985 7.176 25.0345 6.88533 25.1305 6.592C25.2265 6.29333 25.2745 5.976 25.2745 5.64C25.2745 5.304 25.2212 5.01067 25.1145 4.76C25.0078 4.504 24.8612 4.29333 24.6745 4.128C24.4932 3.96267 24.2772 3.84 24.0265 3.76C23.7758 3.67467 23.5065 3.632 23.2185 3.632C22.9252 3.632 22.6558 3.67467 22.4105 3.76C22.1652 3.84533 21.9465 3.96533 21.7545 4.12C21.5678 4.26933 21.4105 4.448 21.2825 4.656C21.1545 4.864 21.0638 5.09333 21.0105 5.344C20.9465 5.53067 20.8585 5.656 20.7465 5.72C20.6398 5.77867 20.4878 5.79467 20.2905 5.768L19.5465 5.64C19.6212 5.11733 19.7652 4.656 19.9785 4.256C20.1972 3.85067 20.4692 3.512 20.7945 3.24C21.1252 2.968 21.5012 2.76267 21.9225 2.624C22.3438 2.48 22.7998 2.408 23.2905 2.408C23.7758 2.408 24.2292 2.48 24.6505 2.624C25.0718 2.768 25.4372 2.97867 25.7465 3.256C26.0558 3.528 26.2985 3.86133 26.4745 4.256C26.6505 4.65067 26.7385 5.09867 26.7385 5.6C26.7385 6.02667 26.6745 6.424 26.5465 6.792C26.4185 7.15467 26.2452 7.50133 26.0265 7.832C25.8078 8.16267 25.5545 8.48533 25.2665 8.8C24.9838 9.11467 24.6825 9.432 24.3625 9.752L21.3385 12.84C21.5518 12.7813 21.7678 12.736 21.9865 12.704C22.2052 12.6667 22.4158 12.648 22.6185 12.648H26.4585ZM28.7318 13.12C28.7318 12.9813 28.7558 12.8507 28.8038 12.728C28.8571 12.6053 28.9264 12.4987 29.0118 12.408C29.1024 12.3173 29.2091 12.2453 29.3318 12.192C29.4544 12.1387 29.5851 12.112 29.7238 12.112C29.8624 12.112 29.9931 12.1387 30.1158 12.192C30.2384 12.2453 30.3451 12.3173 30.4358 12.408C30.5264 12.4987 30.5984 12.6053 30.6518 12.728C30.7051 12.8507 30.7318 12.9813 30.7318 13.12C30.7318 13.264 30.7051 13.3973 30.6518 13.52C30.5984 13.6373 30.5264 13.7413 30.4358 13.832C30.3451 13.9227 30.2384 13.992 30.1158 14.04C29.9931 14.0933 29.8624 14.12 29.7238 14.12C29.5851 14.12 29.4544 14.0933 29.3318 14.04C29.2091 13.992 29.1024 13.9227 29.0118 13.832C28.9264 13.7413 28.8571 13.6373 28.8038 13.52C28.7558 13.3973 28.7318 13.264 28.7318 13.12ZM40.425 8.272C40.425 9.27467 40.3157 10.144 40.097 10.88C39.8837 11.6107 39.5903 12.216 39.217 12.696C38.8437 13.176 38.401 13.5333 37.889 13.768C37.3823 14.0027 36.8383 14.12 36.257 14.12C35.6703 14.12 35.1237 14.0027 34.617 13.768C34.1157 13.5333 33.6783 13.176 33.305 12.696C32.9317 12.216 32.6383 11.6107 32.425 10.88C32.2117 10.144 32.105 9.27467 32.105 8.272C32.105 7.26933 32.2117 6.4 32.425 5.664C32.6383 4.928 32.9317 4.32 33.305 3.84C33.6783 3.35467 34.1157 2.99467 34.617 2.76C35.1237 2.52533 35.6703 2.408 36.257 2.408C36.8383 2.408 37.3823 2.52533 37.889 2.76C38.401 2.99467 38.8437 3.35467 39.217 3.84C39.5903 4.32 39.8837 4.928 40.097 5.664C40.3157 6.4 40.425 7.26933 40.425 8.272ZM38.945 8.272C38.945 7.39733 38.8703 6.664 38.721 6.072C38.577 5.47467 38.3797 4.99467 38.129 4.632C37.8837 4.26933 37.5983 4.01067 37.273 3.856C36.9477 3.696 36.609 3.616 36.257 3.616C35.905 3.616 35.5663 3.696 35.241 3.856C34.9157 4.01067 34.6303 4.26933 34.385 4.632C34.1397 4.99467 33.9423 5.47467 33.793 6.072C33.649 6.664 33.577 7.39733 33.577 8.272C33.577 9.14667 33.649 9.88 33.793 10.472C33.9423 11.064 34.1397 11.5413 34.385 11.904C34.6303 12.2667 34.9157 12.528 35.241 12.688C35.5663 12.8427 35.905 12.92 36.257 12.92C36.609 12.92 36.9477 12.8427 37.273 12.688C37.5983 12.528 37.8837 12.2667 38.129 11.904C38.3797 11.5413 38.577 11.064 38.721 10.472C38.8703 9.88 38.945 9.14667 38.945 8.272ZM49.7063 8.272C49.7063 9.27467 49.5969 10.144 49.3783 10.88C49.1649 11.6107 48.8716 12.216 48.4983 12.696C48.1249 13.176 47.6823 13.5333 47.1703 13.768C46.6636 14.0027 46.1196 14.12 45.5383 14.12C44.9516 14.12 44.4049 14.0027 43.8983 13.768C43.3969 13.5333 42.9596 13.176 42.5863 12.696C42.2129 12.216 41.9196 11.6107 41.7063 10.88C41.4929 10.144 41.3863 9.27467 41.3863 8.272C41.3863 7.26933 41.4929 6.4 41.7063 5.664C41.9196 4.928 42.2129 4.32 42.5863 3.84C42.9596 3.35467 43.3969 2.99467 43.8983 2.76C44.4049 2.52533 44.9516 2.408 45.5383 2.408C46.1196 2.408 46.6636 2.52533 47.1703 2.76C47.6823 2.99467 48.1249 3.35467 48.4983 3.84C48.8716 4.32 49.1649 4.928 49.3783 5.664C49.5969 6.4 49.7063 7.26933 49.7063 8.272ZM48.2263 8.272C48.2263 7.39733 48.1516 6.664 48.0023 6.072C47.8583 5.47467 47.6609 4.99467 47.4103 4.632C47.1649 4.26933 46.8796 4.01067 46.5543 3.856C46.2289 3.696 45.8903 3.616 45.5383 3.616C45.1863 3.616 44.8476 3.696 44.5223 3.856C44.1969 4.01067 43.9116 4.26933 43.6663 4.632C43.4209 4.99467 43.2236 5.47467 43.0743 6.072C42.9303 6.664 42.8583 7.39733 42.8583 8.272C42.8583 9.14667 42.9303 9.88 43.0743 10.472C43.2236 11.064 43.4209 11.5413 43.6663 11.904C43.9116 12.2667 44.1969 12.528 44.5223 12.688C44.8476 12.8427 45.1863 12.92 45.5383 12.92C45.8903 12.92 46.2289 12.8427 46.5543 12.688C46.8796 12.528 47.1649 12.2667 47.4103 11.904C47.6609 11.5413 47.8583 11.064 48.0023 10.472C48.1516 9.88 48.2263 9.14667 48.2263 8.272Z" fill="#F16D7F"/>
</svg>
